{"title":"Kyojin to gangu  aka Giants and toys (1958)","uid":9798428,"size":1423133080,"categoryP":"video","categoryS":"movies","magnet":"?xt=urn:btih:8cedc1a00fc560a645ab66c5e5fb47f45a563feb&amp;dn=+Kyojin+to+gangu++aka+Giants+and+toys+%281958%29&amp;tr=udp%3A%2F%2Ftracker.openbittorrent.com%3A80&amp;tr=udp%3A%2F%2Fopen.demonii.com%3A1337&amp;tr=udp%3A%2F%2Ftracker.coppersurfer.tk%3A6969&amp;tr=udp%3A%2F%2Fexodus.desync.com%3A6969","seeders":1,"leechers":1,"uploader":"cavallone","files":3,"time":1395348734,"description":"Plot: Nishi is an advertising executive for a caramel company that is planning to launch a new product, in fierce competition with two other companies. His boss builds up Kyoko, a vivacious girl with bad teeth, as their mascot. Kyoko is smitten with Nishi when he is assigned to look after her. Meanwhile Nishi is trying to extract information about his competitors advertising campaigns, from his girlfriend, who works for one rival, and his old college friend, who works for the other rival company.\n\nRip specs:\n\n\nFormat                                   : Matroska\nFormat version                           : Version 2\nFile size                                : 1.33 GiB\nDuration                                 : 1h 35mn\nOverall bit rate                         : 1 997 Kbps\nWriting application                      : HandBrake 0.9.9\nWriting library                          : libmkv 0.6.5\n\nVideo\nID                                       : 1\nFormat                                   : AVC\nFormat/Info                              : Advanced Video Codec\nFormat profile                           : &lt;a class=&quot;__cf_email__&quot; href=&quot;/cdn-cgi/l/email-protection&quot; data-cfemail=&quot;652d0c020d2529564b55&quot;&gt;[email&amp;#160;protected]&lt;/a&gt;&lt;script cf-hash='f9e31' type=&quot;text/javascript&quot;&gt;\n/* &lt;![CDATA[ */!function(){try{var t=&quot;currentScript&quot;in document?document.currentScript:function(){for(var t=document.getElementsByTagName(&quot;script&quot;),e=t.length;e--;)if(t[e].getAttribute(&quot;cf-hash&quot;))return t[e]}();if(t&amp;&amp;t.previousSibling){var e,r,n,i,c=t.previousSibling,a=c.getAttribute(&quot;data-cfemail&quot;);if(a){for(e=&quot;&quot;,r=parseInt(a.substr(0,2),16),n=2;a.length-n;n+=2)i=parseInt(a.substr(n,2),16)^r,e+=String.fromCharCode(i);e=document.createTextNode(e),c.parentNode.replaceChild(e,c)}}}catch(u){}}();/* ]]&gt; */&lt;/script&gt;\nFormat settings, CABAC                   : Yes\nFormat settings, ReFrames                : 4 frames\nCodec ID                                 : V_MPEG4/ISO/AVC\nDuration                                 : 1h 35mn\nBit rate                                 : 1 800 Kbps\nWidth                                    : 710 pixels\nHeight                                   : 364 pixels\nDisplay aspect ratio                     : 2.35:1\nOriginal display aspect ratio            : 2.35:1\nFrame rate mode                          : Constant\nFrame rate                               : 23.976 fps\nColor space                              : YUV\nChroma subsampling                       : 4:2:0\nBit depth                                : 8 bits\nScan type                                : Progressive\nBits/(Pixel*Frame)                       : 0.290\nStream size                              : 1.17 GiB (88%)\nWriting library                          : x264 core 130 r2273 b3065e6\nEncoding settings                        : cabac=1 / ref=3 / deblock=1:-3:-3 / analyse=0x3:0x113 / me=hex / subme=7 / psy=1 / psy_rd=1.00:0.00 / mixed_ref=1 / me_range=16 / chroma_me=1 / trellis=2 / 8x8dct=1 / cqm=0 / deadzone=21,11 / fast_pskip=0 / chroma_qp_offset=-2 / threads=1 / lookahead_threads=1 / sliced_threads=0 / nr=0 / decimate=1 / interlaced=0 / bluray_compat=0 / constrained_intra=0 / bframes=3 / b_pyramid=2 / b_adapt=2 / b_bias=0 / direct=3 / weightb=1 / open_gop=0 / weightp=2 / keyint=240 / keyint_min=24 / scenecut=40 / intra_refresh=0 / rc_lookahead=60 / rc=abr / mbtree=1 / bitrate=1800 / ratetol=1.0 / qcomp=0.60 / qpmin=0 / qpmax=69 / qpstep=4 / ip_ratio=1.40 / aq=1:1.00\nLanguage                                 : English\nDefault                                  : Yes\nForced                                   : No\nColor primaries                          : BT.601 NTSC\nTransfer characteristics                 : BT.709\nMatrix coefficients                      : BT.601\n\nAudio\nID                                       : 2\nFormat                                   : AC-3\nFormat/Info                              : Audio Coding 3\nMode extension                           : CM (complete main)\nFormat settings, Endianness              : Big\nCodec ID                                 : A_AC3\nDuration                                 : 1h 35mn\nBit rate mode                            : Constant\nBit rate                                 : 192 Kbps\nChannel(s)                               : 2 channels\nChannel positions                        : Front: L R\nSampling rate                            : 48.0 KHz\nBit depth                                : 16 bits\nCompression mode                         : Lossy\nStream size                              : 130 MiB (10%)\nLanguage                                 : Japanese\nDefault                                  : Yes\nForced                                   : No\n\nText\nID                                       : 3\nFormat                                   : VobSub\nCodec ID                                 : S_VOBSUB\nCodec ID/Info                            : The same subtitle format used on DVDs\nLanguage                                 : English\nDefault                                  : Yes\nForced                                   : No\n\nMenu\n00:00:00.000                             : Chapter 1\n00:04:51.291                             : Chapter 2\n00:10:03.769                             : Chapter 3\n00:16:50.509                             : Chapter 4\n00:23:16.019                             : Chapter 5\n00:28:44.514                             : Chapter 6\n00:35:05.394                             : Chapter 7\n00:42:20.996                             : Chapter 8\n00:48:44.546                             : Chapter 9\n00:56:24.672                             : Chapter 10\n01:03:03.613                             : Chapter 11\n01:10:33.062                             : Chapter 12\n01:14:11.113                             : Chapter 13\n01:18:40.048                             : Chapter 14\n01:22:41.790                             : Chapter 15\n01:29:19.520                             : Chapter 16\n\n\nMy rip, enjoy!","torrent":{"xt":"urn:btih:8cedc1a00fc560a645ab66c5e5fb47f45a563feb","amp;dn":"+Kyojin+to+gangu++aka+Giants+and+toys+%281958%29","amp;tr":["udp%3A%2F%2Ftracker.openbittorrent.com%3A80","udp%3A%2F%2Fopen.demonii.com%3A1337","udp%3A%2F%2Ftracker.coppersurfer.tk%3A6969","udp%3A%2F%2Fexodus.desync.com%3A6969"],"infoHash":"8cedc1a00fc560a645ab66c5e5fb47f45a563feb","infoHashBuffer":{"type":"Buffer","data":[140,237,193,160,15,197,96,166,69,171,102,197,229,251,71,244,90,86,63,235]},"announce":[],"urlList":[]}}